<svg width="18" height="18" viewBox="0 0 18 18" fill="none" xmlns="http://www.w3.org/2000/svg">
<path d="M8.901 7.506L7.695 8.136C7.569 7.866 7.416 7.677 7.227 7.569C7.038 7.461 6.858 7.407 6.705 7.407C5.895 7.407 5.499 7.938 5.499 9C5.499 9.486 5.598 9.873 5.805 10.161C6.003 10.449 6.3 10.593 6.705 10.593C7.227 10.593 7.596 10.35 7.812 9.819L8.919 10.386C8.685 10.827 8.361 11.169 7.938 11.421C7.524 11.673 7.065 11.799 6.561 11.799C5.751 11.799 5.103 11.556 4.608 11.061C4.122 10.566 3.87 9.9 3.87 9C3.87 8.145 4.122 7.47 4.617 6.966C5.121 6.462 5.751 6.21 6.507 6.21C7.623 6.201 8.424 6.642 8.901 7.506ZM14.094 7.506L12.906 8.136C12.78 7.866 12.6 7.677 12.429 7.569C12.24 7.461 12.06 7.407 11.889 7.407C11.088 7.407 10.683 7.938 10.683 9C10.683 9.486 10.8 9.873 10.989 10.161C11.196 10.449 11.493 10.593 11.889 10.593C12.42 10.593 12.789 10.35 13.005 9.819L14.13 10.386C13.878 10.827 13.545 11.169 13.131 11.421C12.708 11.673 12.258 11.799 11.763 11.799C10.953 11.799 10.296 11.556 9.81 11.061C9.324 10.566 9.081 9.9 9.081 9C9.081 8.145 9.333 7.47 9.828 6.966C10.323 6.462 10.953 6.21 11.7 6.21C12.834 6.201 13.626 6.642 14.094 7.506ZM9 1.35C11.0289 1.35 12.9747 2.15598 14.4094 3.59063C15.844 5.02529 16.65 6.97109 16.65 9C16.65 11.0289 15.844 12.9747 14.4094 14.4094C12.9747 15.844 11.0289 16.65 9 16.65C6.97109 16.65 5.02529 15.844 3.59063 14.4094C2.15598 12.9747 1.35 11.0289 1.35 9C1.35 6.97109 2.15598 5.02529 3.59063 3.59063C5.02529 2.15598 6.97109 1.35 9 1.35ZM9 0C7.8181 0 6.64778 0.232792 5.55585 0.685084C4.46392 1.13738 3.47177 1.80031 2.63604 2.63604C0.948211 4.32387 0 6.61305 0 9C0 11.3869 0.948211 13.6761 2.63604 15.364C3.47177 16.1997 4.46392 16.8626 5.55585 17.3149C6.64778 17.7672 7.8181 18 9 18C11.3869 18 13.6761 17.0518 15.364 15.364C17.0518 13.6761 18 11.3869 18 9C18 7.8181 17.7672 6.64778 17.3149 5.55585C16.8626 4.46392 16.1997 3.47177 15.364 2.63604C14.5282 1.80031 13.5361 1.13738 12.4442 0.685084C11.3522 0.232792 10.1819 0 9 0Z" fill="white"/>
</svg>
