<svg width="212" height="90" viewBox="0 0 212 90" fill="none" xmlns="http://www.w3.org/2000/svg">
<path d="M30.4375 43.9062H39.7812C39.5938 46.9688 38.75 49.6875 37.25 52.0625C35.7708 54.4375 33.6979 56.2917 31.0312 57.625C28.3854 58.9583 25.1979 59.625 21.4688 59.625C18.5521 59.625 15.9375 59.125 13.625 58.125C11.3125 57.1042 9.33333 55.6458 7.6875 53.75C6.0625 51.8542 4.82292 49.5625 3.96875 46.875C3.11458 44.1875 2.6875 41.1771 2.6875 37.8438V34.6875C2.6875 31.3542 3.125 28.3438 4 25.6562C4.89583 22.9479 6.16667 20.6458 7.8125 18.75C9.47917 16.8542 11.4688 15.3958 13.7812 14.375C16.0938 13.3542 18.6771 12.8438 21.5312 12.8438C25.3229 12.8438 28.5208 13.5312 31.125 14.9062C33.75 16.2812 35.7812 18.1771 37.2188 20.5938C38.6771 23.0104 39.5521 25.7604 39.8438 28.8438H30.4688C30.3646 27.0104 30 25.4583 29.375 24.1875C28.75 22.8958 27.8021 21.9271 26.5312 21.2812C25.2812 20.6146 23.6146 20.2812 21.5312 20.2812C19.9688 20.2812 18.6042 20.5729 17.4375 21.1562C16.2708 21.7396 15.2917 22.625 14.5 23.8125C13.7083 25 13.1146 26.5 12.7188 28.3125C12.3438 30.1042 12.1562 32.2083 12.1562 34.625V37.8438C12.1562 40.1979 12.3333 42.2708 12.6875 44.0625C13.0417 45.8333 13.5833 47.3333 14.3125 48.5625C15.0625 49.7708 16.0208 50.6875 17.1875 51.3125C18.375 51.9167 19.8021 52.2188 21.4688 52.2188C23.4271 52.2188 25.0417 51.9062 26.3125 51.2812C27.5833 50.6562 28.5521 49.7292 29.2188 48.5C29.9062 47.2708 30.3125 45.7396 30.4375 43.9062ZM64.4375 21.2812L52.0625 59H42.0938L59 13.5H65.3438L64.4375 21.2812ZM74.7188 59L62.3125 21.2812L61.3125 13.5H67.7188L84.7188 59H74.7188ZM74.1562 42.0625V49.4062H50.125V42.0625H74.1562ZM107.438 21.2812L95.0625 59H85.0938L102 13.5H108.344L107.438 21.2812ZM117.719 59L105.312 21.2812L104.312 13.5H110.719L127.719 59H117.719ZM117.156 42.0625V49.4062H93.125V42.0625H117.156ZM155.625 47.0938C155.625 46.2812 155.5 45.5521 155.25 44.9062C155.021 44.2396 154.583 43.6354 153.938 43.0938C153.292 42.5312 152.385 41.9792 151.219 41.4375C150.052 40.8958 148.542 40.3333 146.688 39.75C144.625 39.0833 142.667 38.3333 140.812 37.5C138.979 36.6667 137.354 35.6979 135.938 34.5938C134.542 33.4688 133.438 32.1667 132.625 30.6875C131.833 29.2083 131.438 27.4896 131.438 25.5312C131.438 23.6354 131.854 21.9167 132.688 20.375C133.521 18.8125 134.688 17.4792 136.188 16.375C137.688 15.25 139.458 14.3854 141.5 13.7812C143.562 13.1771 145.823 12.875 148.281 12.875C151.635 12.875 154.562 13.4792 157.062 14.6875C159.562 15.8958 161.5 17.5521 162.875 19.6562C164.271 21.7604 164.969 24.1667 164.969 26.875H155.656C155.656 25.5417 155.375 24.375 154.812 23.375C154.271 22.3542 153.438 21.5521 152.312 20.9688C151.208 20.3854 149.812 20.0938 148.125 20.0938C146.5 20.0938 145.146 20.3438 144.062 20.8438C142.979 21.3229 142.167 21.9792 141.625 22.8125C141.083 23.625 140.812 24.5417 140.812 25.5625C140.812 26.3333 141 27.0312 141.375 27.6562C141.771 28.2812 142.354 28.8646 143.125 29.4062C143.896 29.9479 144.844 30.4583 145.969 30.9375C147.094 31.4167 148.396 31.8854 149.875 32.3438C152.354 33.0938 154.531 33.9375 156.406 34.875C158.302 35.8125 159.885 36.8646 161.156 38.0312C162.427 39.1979 163.385 40.5208 164.031 42C164.677 43.4792 165 45.1562 165 47.0312C165 49.0104 164.615 50.7812 163.844 52.3438C163.073 53.9062 161.958 55.2292 160.5 56.3125C159.042 57.3958 157.302 58.2188 155.281 58.7812C153.26 59.3438 151 59.625 148.5 59.625C146.25 59.625 144.031 59.3333 141.844 58.75C139.656 58.1458 137.667 57.2396 135.875 56.0312C134.104 54.8229 132.688 53.2812 131.625 51.4062C130.562 49.5312 130.031 47.3125 130.031 44.75H139.438C139.438 46.1667 139.656 47.3646 140.094 48.3438C140.531 49.3229 141.146 50.1146 141.938 50.7188C142.75 51.3229 143.708 51.7604 144.812 52.0312C145.938 52.3021 147.167 52.4375 148.5 52.4375C150.125 52.4375 151.458 52.2083 152.5 51.75C153.562 51.2917 154.344 50.6562 154.844 49.8438C155.365 49.0312 155.625 48.1146 155.625 47.0938ZM208.75 35.1875V37.3438C208.75 40.8021 208.281 43.9062 207.344 46.6562C206.406 49.4062 205.083 51.75 203.375 53.6875C201.667 55.6042 199.625 57.0729 197.25 58.0938C194.896 59.1146 192.281 59.625 189.406 59.625C186.552 59.625 183.938 59.1146 181.562 58.0938C179.208 57.0729 177.167 55.6042 175.438 53.6875C173.708 51.75 172.365 49.4062 171.406 46.6562C170.469 43.9062 170 40.8021 170 37.3438V35.1875C170 31.7083 170.469 28.6042 171.406 25.875C172.344 23.125 173.667 20.7812 175.375 18.8438C177.104 16.9062 179.146 15.4271 181.5 14.4062C183.875 13.3854 186.49 12.875 189.344 12.875C192.219 12.875 194.833 13.3854 197.188 14.4062C199.562 15.4271 201.604 16.9062 203.312 18.8438C205.042 20.7812 206.375 23.125 207.312 25.875C208.271 28.6042 208.75 31.7083 208.75 35.1875ZM199.281 37.3438V35.125C199.281 32.7083 199.062 30.5833 198.625 28.75C198.188 26.9167 197.542 25.375 196.688 24.125C195.833 22.875 194.792 21.9375 193.562 21.3125C192.333 20.6667 190.927 20.3438 189.344 20.3438C187.76 20.3438 186.354 20.6667 185.125 21.3125C183.917 21.9375 182.885 22.875 182.031 24.125C181.198 25.375 180.562 26.9167 180.125 28.75C179.688 30.5833 179.469 32.7083 179.469 35.125V37.3438C179.469 39.7396 179.688 41.8646 180.125 43.7188C180.562 45.5521 181.208 47.1042 182.062 48.375C182.917 49.625 183.958 50.5729 185.188 51.2188C186.417 51.8646 187.823 52.1875 189.406 52.1875C190.99 52.1875 192.396 51.8646 193.625 51.2188C194.854 50.5729 195.885 49.625 196.719 48.375C197.552 47.1042 198.188 45.5521 198.625 43.7188C199.062 41.8646 199.281 39.7396 199.281 37.3438Z" fill="#F2A10C"/>
<path d="M14.8105 82.1611V84.4463H7.24219V82.1611H14.8105ZM8.19922 70.2275V84.4463H5.26953V70.2275H8.19922ZM13.8242 76.0185V78.2451H7.24219V76.0185H13.8242ZM14.8008 70.2275V72.5224H7.24219V70.2275H14.8008ZM35.2602 82.1611V84.4463H28.102V82.1611H35.2602ZM29.0492 70.2275V84.4463H26.1195V70.2275H29.0492ZM56.0809 82.1611V84.4463H48.5125V82.1611H56.0809ZM49.4695 70.2275V84.4463H46.5398V70.2275H49.4695ZM55.0945 76.0185V78.2451H48.5125V76.0185H55.0945ZM56.0711 70.2275V72.5224H48.5125V70.2275H56.0711ZM73.9426 70.2275V84.4463H71.0227V70.2275H73.9426ZM78.3176 70.2275V72.5224H66.716V70.2275H78.3176ZM89.5875 70.2275H94.8902C95.9775 70.2275 96.9117 70.3903 97.693 70.7158C98.4807 71.0413 99.0862 71.5231 99.5094 72.1611C99.9326 72.7991 100.144 73.5836 100.144 74.5146C100.144 75.2763 100.014 75.9306 99.7535 76.4775C99.4996 77.0179 99.1383 77.4703 98.6695 77.8349C98.2073 78.193 97.6637 78.4795 97.0387 78.6943L96.1109 79.1826H91.5016L91.482 76.8974H94.9098C95.4241 76.8974 95.8505 76.8063 96.1891 76.624C96.5276 76.4417 96.7815 76.1878 96.9508 75.8623C97.1266 75.5367 97.2145 75.1591 97.2145 74.7295C97.2145 74.2737 97.1298 73.8798 96.9605 73.5478C96.7913 73.2158 96.5341 72.9619 96.1891 72.7861C95.844 72.6103 95.4111 72.5224 94.8902 72.5224H92.5172V84.4463H89.5875V70.2275ZM97.5367 84.4463L94.2945 78.1084L97.3902 78.0888L100.671 84.3095V84.4463H97.5367ZM123.68 77.0048V77.6787C123.68 78.7594 123.533 79.7295 123.24 80.5888C122.947 81.4482 122.534 82.1806 122 82.7861C121.466 83.3851 120.828 83.844 120.086 84.163C119.35 84.4821 118.533 84.6416 117.635 84.6416C116.743 84.6416 115.926 84.4821 115.184 84.163C114.448 83.844 113.81 83.3851 113.27 82.7861C112.729 82.1806 112.309 81.4482 112.01 80.5888C111.717 79.7295 111.57 78.7594 111.57 77.6787V77.0048C111.57 75.9176 111.717 74.9476 112.01 74.0947C112.303 73.2353 112.716 72.5029 113.25 71.8974C113.79 71.292 114.428 70.8297 115.164 70.5107C115.906 70.1917 116.723 70.0322 117.615 70.0322C118.514 70.0322 119.331 70.1917 120.066 70.5107C120.809 70.8297 121.447 71.292 121.98 71.8974C122.521 72.5029 122.938 73.2353 123.23 74.0947C123.53 74.9476 123.68 75.9176 123.68 77.0048ZM120.721 77.6787V76.9853C120.721 76.2301 120.652 75.566 120.516 74.9931C120.379 74.4202 120.177 73.9384 119.91 73.5478C119.643 73.1572 119.318 72.8642 118.934 72.6689C118.549 72.4671 118.11 72.3662 117.615 72.3662C117.12 72.3662 116.681 72.4671 116.297 72.6689C115.919 72.8642 115.597 73.1572 115.33 73.5478C115.07 73.9384 114.871 74.4202 114.734 74.9931C114.598 75.566 114.529 76.2301 114.529 76.9853V77.6787C114.529 78.4274 114.598 79.0914 114.734 79.6709C114.871 80.2438 115.073 80.7288 115.34 81.1259C115.607 81.5166 115.932 81.8128 116.316 82.0146C116.701 82.2164 117.14 82.3173 117.635 82.3173C118.13 82.3173 118.569 82.2164 118.953 82.0146C119.337 81.8128 119.66 81.5166 119.92 81.1259C120.18 80.7288 120.379 80.2438 120.516 79.6709C120.652 79.0914 120.721 78.4274 120.721 77.6787ZM146.961 70.2275V84.4463H144.032L138.319 74.915V84.4463H135.389V70.2275H138.319L144.041 79.7685V70.2275H146.961ZM162.225 70.2275V84.4463H159.305V70.2275H162.225ZM177.499 70.2275V84.4463H174.57V70.2275H177.499ZM186.015 70.2275L180.38 77.249L177.128 80.7451L176.601 77.9716L178.798 74.9638L182.421 70.2275H186.015ZM182.685 84.4463L178.495 77.874L180.663 76.0576L186.152 84.4463H182.685ZM204.287 80.7255C204.287 80.4716 204.248 80.2438 204.17 80.042C204.098 79.8336 203.961 79.6448 203.759 79.4755C203.558 79.2998 203.274 79.1272 202.91 78.958C202.545 78.7887 202.073 78.6129 201.494 78.4306C200.849 78.2223 200.237 77.9879 199.658 77.7275C199.085 77.4671 198.577 77.1643 198.134 76.8193C197.698 76.4677 197.353 76.0608 197.099 75.5986C196.852 75.1364 196.728 74.5992 196.728 73.9873C196.728 73.3948 196.858 72.8577 197.119 72.3759C197.379 71.8877 197.744 71.471 198.213 71.1259C198.681 70.7744 199.235 70.5042 199.873 70.3154C200.517 70.1266 201.224 70.0322 201.992 70.0322C203.04 70.0322 203.955 70.221 204.736 70.5986C205.517 70.9762 206.123 71.4938 206.552 72.1513C206.989 72.8089 207.207 73.5608 207.207 74.4072H204.296C204.296 73.9905 204.209 73.6259 204.033 73.3134C203.864 72.9944 203.603 72.7438 203.252 72.5615C202.907 72.3792 202.47 72.288 201.943 72.288C201.435 72.288 201.012 72.3662 200.673 72.5224C200.335 72.6722 200.081 72.8772 199.912 73.1377C199.742 73.3916 199.658 73.678 199.658 73.997C199.658 74.2379 199.716 74.456 199.834 74.6513C199.957 74.8466 200.14 75.0289 200.38 75.1982C200.621 75.3675 200.918 75.527 201.269 75.6767C201.621 75.8265 202.028 75.9729 202.49 76.1162C203.265 76.3505 203.945 76.6142 204.531 76.9072C205.123 77.2002 205.618 77.5289 206.015 77.8935C206.412 78.2581 206.712 78.6715 206.914 79.1338C207.116 79.596 207.216 80.1201 207.216 80.706C207.216 81.3245 207.096 81.8779 206.855 82.3662C206.614 82.8545 206.266 83.2679 205.81 83.6064C205.354 83.9449 204.811 84.2021 204.179 84.3779C203.548 84.5537 202.841 84.6416 202.06 84.6416C201.357 84.6416 200.664 84.5504 199.98 84.3681C199.296 84.1793 198.675 83.8961 198.115 83.5185C197.561 83.1409 197.119 82.6591 196.787 82.0732C196.455 81.4873 196.289 80.7939 196.289 79.9931H199.228C199.228 80.4358 199.296 80.8102 199.433 81.1162C199.57 81.4222 199.762 81.6696 200.009 81.8584C200.263 82.0472 200.563 82.1839 200.908 82.2685C201.259 82.3532 201.643 82.3955 202.06 82.3955C202.568 82.3955 202.985 82.3239 203.31 82.1806C203.642 82.0374 203.886 81.8388 204.043 81.5849C204.205 81.331 204.287 81.0446 204.287 80.7255Z" fill="#D9D9D9"/>
</svg>
