<?xml version="1.0" standalone="no"?>
<!DOCTYPE svg PUBLIC "-//W3C//DTD SVG 20010904//EN"
 "http://www.w3.org/TR/2001/REC-SVG-20010904/DTD/svg10.dtd">
<svg version="1.0" xmlns="http://www.w3.org/2000/svg"
 width="512.000000pt" height="512.000000pt" viewBox="0 0 512.000000 512.000000"
 preserveAspectRatio="xMidYMid meet">

<g transform="translate(0.000000,512.000000) scale(0.100000,-0.100000)"
fill="#000000" stroke="none">
<path d="M2377 4815 c-705 -96 -1256 -530 -1403 -1103 -42 -163 -48 -286 -30
-547 11 -169 13 -249 6 -300 -23 -162 -82 -275 -225 -435 -89 -100 -125 -156
-125 -197 0 -60 34 -108 119 -168 178 -125 219 -217 256 -580 25 -251 55 -336
137 -396 87 -62 195 -72 490 -43 324 32 452 -2 516 -138 38 -78 83 -237 122
-428 25 -122 34 -149 56 -167 l25 -23 810 0 810 0 24 25 c33 32 32 69 -5 205
-46 162 -98 425 -116 574 -18 154 -13 259 21 392 29 114 68 194 149 303 273
368 422 677 483 1004 23 127 23 424 0 562 -145 845 -682 1353 -1547 1460 -151
18 -436 18 -573 0z m152 -674 c26 -26 39 -77 47 -188 6 -78 4 -96 -10 -118
-33 -50 -137 -73 -169 -37 -21 23 -76 162 -90 228 -14 67 -7 81 53 112 58 29
142 30 169 3z m409 -48 c16 -11 28 -32 30 -48 5 -36 -61 -170 -93 -191 -29
-19 -86 -10 -111 17 -16 17 -16 26 -5 92 7 39 22 92 32 116 l19 44 51 -5 c28
-3 62 -14 77 -25z m-839 -478 c43 -37 56 -83 36 -130 -8 -21 -15 -39 -15 -40
0 -1 41 -4 90 -7 81 -4 93 -7 117 -30 23 -24 25 -32 24 -106 l-1 -81 27 14
c36 19 76 19 113 0 41 -21 60 -53 60 -102 0 -84 -92 -139 -168 -101 l-30 15
-4 -74 c-8 -115 -44 -141 -179 -128 -68 7 -68 7 -54 28 19 28 19 80 0 117 -35
68 -135 79 -187 20 -16 -16 -28 -40 -29 -53 -2 -40 3 -72 12 -81 19 -20 7 -26
-51 -26 -71 0 -123 19 -140 51 -15 26 -4 473 12 502 17 32 73 49 140 41 58 -7
61 -6 52 12 -5 10 -9 43 -9 72 0 48 3 57 33 83 43 39 107 41 151 4z m1432
-134 c27 -27 29 -35 29 -106 0 -74 0 -75 -21 -64 -52 28 -138 2 -157 -48 -24
-61 -18 -99 22 -139 27 -27 42 -34 73 -34 21 0 50 7 66 14 l27 15 0 -94 c0
-85 -2 -97 -24 -122 -21 -25 -31 -28 -100 -31 -70 -4 -90 -12 -67 -26 19 -12
22 -76 5 -111 -38 -82 -163 -87 -204 -10 -17 32 -18 101 -1 118 23 23 10 30
-50 24 -68 -8 -120 8 -138 41 -6 12 -11 60 -11 107 0 65 -3 85 -12 81 -62 -25
-85 -28 -120 -13 -48 20 -73 60 -73 115 0 38 5 48 38 79 34 31 44 34 80 31 23
-3 50 -8 60 -12 15 -7 17 -1 17 67 0 66 3 80 24 104 24 28 26 28 163 34 76 3
184 6 241 7 102 2 104 2 133 -27z"/>
</g>
</svg>
